# xmcd CD database file
#
# Track frame offsets:
#	150
#	34067
#	59287
#	82350
#	101175
#	118790
#	135895
#	162792
#	193795
#
# Disc length: 2672 seconds
#
# Revision: 0
# Processed by: cddbd v1.5.1PL0 Copyright (c) Steve Scherf et al.
# Submitted via: CDex 1.51
#
DISCID=7a0a6e09
DTITLE=cargo - SUPERFREAK
DYEAR=2005
DGENRE=Club
TTITLE0=reprise
TTITLE1=what's the golden
TTITLE2=seasons
TTITLE3=eclipse
TTITLE4=silence
TTITLE5=intense
TTITLE6=keep turning on
TTITLE7=super freak
TTITLE8=pacific overture
EXTD=YEAR: 2005.08.10
EXTT0=
EXTT1=
EXTT2=
EXTT3=
EXTT4=
EXTT5=
EXTT6=
EXTT7=
EXTT8=
PLAYORDER=
